<svg xmlns="http://www.w3.org/2000/svg" xmlns:xlink="http://www.w3.org/1999/xlink" width="1080" zoomAndPan="magnify" viewBox="0 0 810 1012.49997" height="1350" preserveAspectRatio="xMidYMid meet" version="1.2"><defs><clipPath id="c344c74b63"><path d="M 0.199219 0 L 809.800781 0 L 809.800781 1012 L 0.199219 1012 Z M 0.199219 0 "/></clipPath><clipPath id="fc1cefaa97"><path d="M 243.078125 365 L 566.921875 365 L 566.921875 688.816406 L 243.078125 688.816406 Z M 243.078125 365 "/></clipPath><clipPath id="48c4f23551"><path d="M 243.078125 344.078125 L 566.921875 344.078125 L 566.921875 667.921875 L 243.078125 667.921875 Z M 243.078125 344.078125 "/></clipPath></defs><g id="fa4663e442"><g clip-rule="nonzero" clip-path="url(#c344c74b63)"><path style=" stroke:none;fill-rule:nonzero;fill:#ffffff;fill-opacity:1;" d="M 0.199219 0 L 809.800781 0 L 809.800781 1012 L 0.199219 1012 Z M 0.199219 0 "/><path style=" stroke:none;fill-rule:nonzero;fill:#200934;fill-opacity:1;" d="M 0.199219 0 L 809.800781 0 L 809.800781 1012 L 0.199219 1012 Z M 0.199219 0 "/></g><g clip-rule="nonzero" clip-path="url(#fc1cefaa97)"><path style=" stroke:none;fill-rule:nonzero;fill:#1d0432;fill-opacity:1;" d="M 280.238281 507.246094 C 278.804688 509.746094 275.617188 510.613281 273.125 509.179688 L 257.503906 500.257812 C 255.003906 498.824219 254.140625 495.636719 255.570312 493.144531 C 257.003906 490.644531 260.191406 489.78125 262.683594 491.210938 L 278.304688 500.136719 C 280.796875 501.558594 281.660156 504.746094 280.238281 507.246094 Z M 566.816406 504.246094 C 566.960938 506.1875 566.003906 508.136719 564.210938 509.164062 L 488.519531 552.414062 L 488.519531 638.457031 C 488.667969 640.398438 487.710938 642.347656 485.914062 643.375 L 407.839844 687.992188 C 407.816406 688.007812 407.78125 688.023438 407.75 688.039062 C 407.605469 688.128906 407.453125 688.210938 407.296875 688.292969 C 407.25 688.316406 407.199219 688.339844 407.152344 688.363281 C 406.957031 688.453125 406.753906 688.527344 406.554688 688.589844 C 406.511719 688.597656 406.472656 688.605469 406.441406 688.625 C 406.261719 688.671875 406.085938 688.710938 405.90625 688.746094 C 405.839844 688.753906 405.785156 688.761719 405.71875 688.769531 C 405.5 688.800781 405.273438 688.816406 405.046875 688.816406 C 404.820312 688.816406 404.59375 688.800781 404.378906 688.769531 C 404.3125 688.761719 404.253906 688.753906 404.191406 688.746094 C 404.003906 688.710938 403.828125 688.671875 403.65625 688.625 C 403.617188 688.613281 403.574219 688.605469 403.535156 688.589844 C 403.332031 688.527344 403.132812 688.453125 402.9375 688.363281 C 402.886719 688.339844 402.839844 688.316406 402.785156 688.292969 C 402.628906 688.21875 402.476562 688.128906 402.332031 688.039062 C 402.304688 688.023438 402.273438 688.007812 402.242188 687.992188 L 324.164062 643.375 C 322.359375 642.339844 321.414062 640.398438 321.558594 638.457031 L 321.558594 552.414062 L 245.863281 509.171875 C 244.058594 508.136719 243.113281 506.195312 243.257812 504.253906 L 243.257812 415.570312 C 243.113281 413.628906 244.058594 411.6875 245.863281 410.660156 L 324.15625 365.925781 C 325.710938 365.042969 327.675781 364.976562 329.335938 365.925781 L 405.03125 409.179688 L 480.738281 365.914062 C 482.292969 365.035156 484.257812 364.96875 485.914062 365.914062 L 564.203125 410.652344 C 564.988281 411.097656 565.65625 411.753906 566.136719 412.585938 C 566.667969 413.523438 566.886719 414.5625 566.808594 415.554688 Z M 258.953125 415.183594 L 326.746094 453.910156 L 331.058594 451.441406 L 343.878906 444.113281 L 276.09375 405.386719 Z M 286.597656 399.382812 L 354.382812 438.117188 L 368.425781 430.09375 L 300.640625 391.359375 Z M 415.53125 415.175781 L 483.328125 453.902344 L 500.460938 444.113281 L 432.675781 405.378906 Z M 443.183594 399.375 L 510.96875 438.109375 L 525.015625 430.085938 L 457.230469 391.351562 Z M 446.71875 564.304688 L 378.933594 525.570312 L 364.890625 533.597656 L 432.675781 572.332031 Z M 399.839844 424.148438 L 384.152344 433.109375 L 384.152344 449.476562 C 384.144531 451.28125 383.207031 453.035156 381.523438 454 L 357.691406 467.613281 C 356.882812 468.132812 355.917969 468.429688 354.882812 468.429688 C 352.003906 468.429688 349.664062 466.09375 349.664062 463.214844 L 349.664062 452.808594 L 331.964844 462.929688 L 331.964844 540.398438 L 353.492188 528.09375 L 399.839844 501.617188 Z M 360.101562 454.226562 L 373.707031 446.449219 L 373.707031 439.074219 L 369.816406 441.296875 L 360.09375 446.855469 L 360.09375 454.226562 Z M 410.234375 501.609375 L 478.109375 540.390625 L 478.109375 462.921875 L 410.234375 424.140625 Z M 409.433594 585.605469 L 422.167969 578.332031 L 354.382812 539.597656 L 337.238281 549.394531 L 405.03125 588.121094 Z M 472.816406 549.386719 L 405.039062 510.652344 L 389.441406 519.566406 L 457.230469 558.300781 Z M 438.394531 588.445312 L 452.003906 580.671875 L 452.003906 573.292969 L 448.222656 575.453125 L 438.394531 581.074219 Z M 516.691406 454.226562 L 530.296875 446.449219 L 530.296875 439.074219 L 526.429688 441.28125 L 516.691406 446.847656 Z M 467.730469 385.347656 L 535.515625 424.082031 L 551.113281 415.167969 L 483.328125 376.433594 Z M 311.148438 385.347656 L 378.933594 424.082031 L 394.53125 415.167969 L 326.746094 376.433594 Z M 253.652344 501.617188 L 321.527344 540.398438 L 321.527344 462.929688 L 253.652344 424.148438 Z M 331.941406 635.828125 L 399.8125 674.613281 L 399.8125 597.140625 L 331.941406 558.359375 Z M 431.785156 662.316406 L 478.132812 635.835938 L 478.132812 558.367188 L 462.445312 567.332031 L 462.445312 583.695312 C 462.4375 585.5 461.5 587.257812 459.816406 588.21875 L 435.984375 601.835938 C 435.175781 602.351562 434.210938 602.652344 433.175781 602.652344 C 430.296875 602.652344 427.960938 600.3125 427.960938 597.433594 L 427.960938 587.03125 L 410.257812 597.148438 L 410.257812 674.621094 Z M 510.070312 528.09375 L 556.417969 501.617188 L 556.417969 424.148438 L 540.734375 433.109375 L 540.734375 449.476562 C 540.726562 451.28125 539.785156 453.035156 538.105469 454 L 514.269531 467.613281 C 513.460938 468.132812 512.5 468.429688 511.464844 468.429688 C 508.582031 468.429688 506.246094 466.09375 506.246094 463.214844 L 506.246094 452.816406 L 488.542969 462.9375 L 488.542969 540.40625 Z M 434.882812 500.128906 L 419.261719 491.203125 C 416.761719 489.773438 413.574219 490.644531 412.152344 493.136719 C 410.71875 495.636719 411.59375 498.824219 414.085938 500.25 L 429.707031 509.171875 C 432.207031 510.605469 435.394531 509.730469 436.816406 507.238281 C 438.242188 504.746094 437.375 501.558594 434.882812 500.128906 Z M 356.589844 634.347656 L 340.96875 625.425781 C 338.46875 623.992188 335.28125 624.867188 333.855469 627.359375 C 332.425781 629.859375 333.300781 633.046875 335.789062 634.46875 L 351.414062 643.390625 C 353.910156 644.824219 357.097656 643.949219 358.523438 641.457031 C 359.957031 638.96875 359.089844 635.78125 356.589844 634.347656 Z M 356.589844 634.347656 "/></g><g clip-rule="nonzero" clip-path="url(#48c4f23551)"><path style=" stroke:none;fill-rule:nonzero;fill:#ffffff;fill-opacity:1;" d="M 280.238281 486.351562 C 278.804688 488.847656 275.617188 489.714844 273.125 488.28125 L 257.503906 479.359375 C 255.003906 477.929688 254.140625 474.742188 255.570312 472.25 C 257.003906 469.75 260.191406 468.882812 262.683594 470.316406 L 278.304688 479.238281 C 280.796875 480.664062 281.660156 483.851562 280.238281 486.351562 Z M 566.816406 483.347656 C 566.960938 485.289062 566.003906 487.238281 564.210938 488.265625 L 488.519531 531.515625 L 488.519531 617.558594 C 488.667969 619.5 487.710938 621.453125 485.914062 622.480469 L 407.839844 667.09375 C 407.816406 667.109375 407.78125 667.128906 407.75 667.144531 C 407.605469 667.234375 407.453125 667.3125 407.296875 667.394531 C 407.25 667.417969 407.199219 667.441406 407.152344 667.46875 C 406.957031 667.554688 406.753906 667.628906 406.554688 667.695312 C 406.511719 667.703125 406.472656 667.710938 406.441406 667.726562 C 406.261719 667.773438 406.085938 667.816406 405.90625 667.847656 C 405.839844 667.855469 405.785156 667.863281 405.71875 667.871094 C 405.5 667.902344 405.273438 667.921875 405.046875 667.921875 C 404.820312 667.921875 404.59375 667.902344 404.378906 667.871094 C 404.3125 667.863281 404.253906 667.855469 404.191406 667.847656 C 404.003906 667.816406 403.828125 667.773438 403.65625 667.726562 C 403.617188 667.71875 403.574219 667.710938 403.535156 667.695312 C 403.332031 667.628906 403.132812 667.554688 402.9375 667.46875 C 402.886719 667.441406 402.839844 667.417969 402.785156 667.394531 C 402.628906 667.320312 402.476562 667.234375 402.332031 667.144531 C 402.304688 667.128906 402.273438 667.109375 402.242188 667.09375 L 324.164062 622.480469 C 322.359375 621.445312 321.414062 619.5 321.558594 617.558594 L 321.558594 531.515625 L 245.863281 488.273438 C 244.058594 487.238281 243.113281 485.296875 243.257812 483.355469 L 243.257812 394.675781 C 243.113281 392.734375 244.058594 390.792969 245.863281 389.765625 L 324.15625 345.027344 C 325.710938 344.144531 327.675781 344.078125 329.335938 345.027344 L 405.03125 388.285156 L 480.738281 345.019531 C 482.292969 344.136719 484.257812 344.070312 485.914062 345.019531 L 564.203125 389.753906 C 564.988281 390.199219 565.65625 390.855469 566.136719 391.6875 C 566.667969 392.628906 566.886719 393.664062 566.808594 394.660156 Z M 258.953125 394.285156 L 326.746094 433.011719 L 331.058594 430.546875 L 343.878906 423.214844 L 276.09375 384.488281 Z M 286.597656 378.488281 L 354.382812 417.222656 L 368.425781 409.195312 L 300.640625 370.460938 Z M 415.53125 394.277344 L 483.328125 433.003906 L 500.460938 423.214844 L 432.675781 384.480469 Z M 443.183594 378.476562 L 510.96875 417.214844 L 525.015625 409.1875 L 457.230469 370.453125 Z M 446.71875 543.40625 L 378.933594 504.671875 L 364.890625 512.699219 L 432.675781 551.433594 Z M 399.839844 403.25 L 384.152344 412.214844 L 384.152344 428.578125 C 384.144531 430.382812 383.207031 432.140625 381.523438 433.101562 L 357.691406 446.71875 C 356.882812 447.234375 355.917969 447.535156 354.882812 447.535156 C 352.003906 447.535156 349.664062 445.195312 349.664062 442.316406 L 349.664062 431.914062 L 331.964844 442.03125 L 331.964844 519.503906 L 353.492188 507.199219 L 399.839844 480.71875 Z M 360.101562 433.328125 L 373.707031 425.554688 L 373.707031 418.175781 L 369.816406 420.402344 L 360.09375 425.957031 L 360.09375 433.328125 Z M 410.234375 480.710938 L 478.109375 519.492188 L 478.109375 442.023438 L 410.234375 403.242188 Z M 409.433594 564.707031 L 422.167969 557.4375 L 354.382812 518.703125 L 337.238281 528.5 L 405.03125 567.226562 Z M 472.816406 528.488281 L 405.039062 489.753906 L 389.441406 498.671875 L 457.230469 537.40625 Z M 438.394531 567.546875 L 452.003906 559.773438 L 452.003906 552.394531 L 448.222656 554.554688 L 438.394531 560.179688 Z M 516.691406 433.328125 L 530.296875 425.554688 L 530.296875 418.175781 L 526.429688 420.382812 L 516.691406 425.949219 Z M 467.730469 364.449219 L 535.515625 403.183594 L 551.113281 394.269531 L 483.328125 355.535156 Z M 311.148438 364.449219 L 378.933594 403.183594 L 394.53125 394.269531 L 326.746094 355.535156 Z M 253.652344 480.71875 L 321.527344 519.503906 L 321.527344 442.03125 L 253.652344 403.25 Z M 331.941406 614.929688 L 399.8125 653.714844 L 399.8125 576.246094 L 331.941406 537.460938 Z M 431.785156 641.417969 L 478.132812 614.9375 L 478.132812 537.46875 L 462.445312 546.433594 L 462.445312 562.800781 C 462.4375 564.605469 461.5 566.359375 459.816406 567.320312 L 435.984375 580.9375 C 435.175781 581.453125 434.210938 581.753906 433.175781 581.753906 C 430.296875 581.753906 427.960938 579.417969 427.960938 576.535156 L 427.960938 566.132812 L 410.257812 576.253906 L 410.257812 653.722656 Z M 510.070312 507.199219 L 556.417969 480.71875 L 556.417969 403.25 L 540.734375 412.214844 L 540.734375 428.578125 C 540.726562 430.382812 539.785156 432.140625 538.105469 433.101562 L 514.269531 446.71875 C 513.460938 447.234375 512.5 447.535156 511.464844 447.535156 C 508.582031 447.535156 506.246094 445.195312 506.246094 442.316406 L 506.246094 431.921875 L 488.542969 442.042969 L 488.542969 519.511719 Z M 434.882812 479.230469 L 419.261719 470.308594 C 416.761719 468.875 413.574219 469.75 412.152344 472.242188 C 410.71875 474.742188 411.59375 477.929688 414.085938 479.351562 L 429.707031 488.273438 C 432.207031 489.707031 435.394531 488.832031 436.816406 486.339844 C 438.242188 483.851562 437.375 480.664062 434.882812 479.230469 Z M 356.589844 613.449219 L 340.96875 604.527344 C 338.46875 603.09375 335.28125 603.96875 333.855469 606.460938 C 332.425781 608.960938 333.300781 612.148438 335.789062 613.570312 L 351.414062 622.496094 C 353.910156 623.925781 357.097656 623.054688 358.523438 620.5625 C 359.957031 618.070312 359.089844 614.882812 356.589844 613.449219 Z M 356.589844 613.449219 "/></g></g></svg>