<svg xmlns="http://www.w3.org/2000/svg" xmlns:xlink="http://www.w3.org/1999/xlink" width="1080" zoomAndPan="magnify" viewBox="0 0 810 1012.49997" height="1350" preserveAspectRatio="xMidYMid meet" version="1.2"><defs><clipPath id="4dbca1067d"><path d="M 0.199219 0 L 809.800781 0 L 809.800781 1012 L 0.199219 1012 Z M 0.199219 0 "/></clipPath><clipPath id="129e7fccd4"><path d="M 472 383 L 551 383 L 551 664.773438 L 472 664.773438 Z M 472 383 "/></clipPath><clipPath id="04d7cdb950"><path d="M 472 365 L 551 365 L 551 646.84375 L 472 646.84375 Z M 472 365 "/></clipPath></defs><g id="a6cdc13bd9"><g clip-rule="nonzero" clip-path="url(#4dbca1067d)"><path style=" stroke:none;fill-rule:nonzero;fill:#ffffff;fill-opacity:1;" d="M 0.199219 0 L 809.800781 0 L 809.800781 1012 L 0.199219 1012 Z M 0.199219 0 "/><path style=" stroke:none;fill-rule:nonzero;fill:#200934;fill-opacity:1;" d="M 0.199219 0 L 809.800781 0 L 809.800781 1012 L 0.199219 1012 Z M 0.199219 0 "/></g><path style=" stroke:none;fill-rule:nonzero;fill:#1d0432;fill-opacity:1;" d="M 432.203125 490.628906 C 423.304688 487.230469 417.234375 482.019531 414.144531 475.121094 C 408.820312 463.1875 413.886719 449.710938 413.929688 449.578125 C 414.03125 449.320312 414.125 449.03125 414.167969 448.75 C 414.382812 447.710938 419.265625 423.042969 403.933594 405.523438 C 393.125 393.195312 375.410156 387.796875 351.238281 389.5625 C 284.894531 394.332031 248.25 477.402344 247.464844 553.144531 C 247.105469 588.195312 264.617188 619.945312 294.328125 638.0625 C 311.097656 648.292969 329.949219 653.394531 349.578125 653.394531 C 369.71875 653.394531 390.679688 648.015625 411.027344 637.257812 C 467.402344 607.480469 471.066406 564.675781 470.035156 547.652344 C 468.414062 521.15625 453.574219 498.773438 432.203125 490.628906 Z M 406.207031 628.140625 C 369.316406 647.632812 330.496094 648.027344 299.707031 629.257812 C 273.132812 613.046875 257.460938 584.644531 257.792969 553.265625 C 258.523438 482.132812 291.789062 404.203125 351.992188 399.863281 C 354.71875 399.667969 357.351562 399.574219 359.871094 399.574219 C 376.503906 399.574219 388.6875 403.839844 396.128906 412.285156 C 407.261719 424.941406 404.585938 443.640625 404.121094 446.347656 C 403.046875 449.382812 398.226562 464.660156 404.679688 479.230469 C 408.902344 488.78125 416.933594 495.863281 428.539062 500.292969 C 445.851562 506.898438 458.398438 526.1875 459.730469 548.289062 C 460.636719 563.304688 457.25 601.164062 406.207031 628.140625 Z M 406.207031 628.140625 "/><path style=" stroke:none;fill-rule:nonzero;fill:#1d0432;fill-opacity:1;" d="M 346.644531 411.191406 C 332.210938 411.191406 320.460938 422.941406 320.460938 437.375 C 320.460938 451.808594 332.210938 463.558594 346.644531 463.558594 C 361.066406 463.558594 372.816406 451.808594 372.816406 437.375 C 372.816406 422.941406 361.078125 411.191406 346.644531 411.191406 Z M 346.644531 453.234375 C 337.898438 453.234375 330.785156 446.117188 330.785156 437.375 C 330.785156 428.628906 337.898438 421.515625 346.644531 421.515625 C 355.390625 421.515625 362.492188 428.628906 362.492188 437.375 C 362.492188 446.117188 355.390625 453.234375 346.644531 453.234375 Z M 346.644531 453.234375 "/><path style=" stroke:none;fill-rule:nonzero;fill:#1d0432;fill-opacity:1;" d="M 415.136719 534.375 C 400.714844 534.375 388.964844 546.121094 388.964844 560.554688 C 388.964844 574.992188 400.714844 586.738281 415.136719 586.738281 C 429.570312 586.738281 441.320312 574.992188 441.320312 560.554688 C 441.320312 546.121094 429.582031 534.375 415.136719 534.375 Z M 415.136719 576.40625 C 406.390625 576.40625 399.289062 569.292969 399.289062 560.546875 C 399.289062 551.800781 406.390625 544.6875 415.136719 544.6875 C 423.882812 544.6875 430.996094 551.800781 430.996094 560.546875 C 430.996094 569.292969 423.882812 576.40625 415.136719 576.40625 Z M 415.136719 576.40625 "/><path style=" stroke:none;fill-rule:nonzero;fill:#1d0432;fill-opacity:1;" d="M 333.550781 509.832031 C 333.550781 493.871094 320.574219 480.882812 304.613281 480.882812 C 288.652344 480.882812 275.664062 493.871094 275.664062 509.832031 C 275.664062 525.792969 288.652344 538.773438 304.613281 538.773438 C 320.574219 538.773438 333.550781 525.792969 333.550781 509.832031 Z M 285.988281 509.832031 C 285.988281 499.558594 294.351562 491.207031 304.613281 491.207031 C 314.875 491.207031 323.226562 499.558594 323.226562 509.832031 C 323.226562 520.09375 314.875 528.445312 304.613281 528.445312 C 294.351562 528.445312 285.988281 520.09375 285.988281 509.832031 Z M 285.988281 509.832031 "/><path style=" stroke:none;fill-rule:nonzero;fill:#1d0432;fill-opacity:1;" d="M 322.867188 560.535156 C 306.90625 560.535156 293.917969 573.515625 293.917969 589.476562 C 293.917969 605.4375 306.90625 618.425781 322.867188 618.425781 C 338.828125 618.425781 351.816406 605.4375 351.816406 589.476562 C 351.816406 573.515625 338.828125 560.535156 322.867188 560.535156 Z M 322.867188 608.101562 C 312.605469 608.101562 304.242188 599.75 304.242188 589.476562 C 304.242188 579.214844 312.605469 570.859375 322.867188 570.859375 C 333.128906 570.859375 341.492188 579.214844 341.492188 589.476562 C 341.480469 599.75 333.128906 608.101562 322.867188 608.101562 Z M 322.867188 608.101562 "/><g clip-rule="nonzero" clip-path="url(#129e7fccd4)"><path style=" stroke:none;fill-rule:nonzero;fill:#1d0432;fill-opacity:1;" d="M 535.613281 422.363281 C 534.222656 420.925781 532.859375 419.542969 531.628906 418.171875 C 519.902344 405.039062 523.246094 390.261719 523.390625 389.675781 C 523.855469 387.828125 523.257812 385.875 521.851562 384.59375 C 520.449219 383.316406 518.425781 382.921875 516.648438 383.5625 C 494.875 391.335938 471.984375 424.933594 472.285156 442.710938 C 472.550781 457.488281 484.148438 470.09375 488.605469 474.429688 L 488.605469 640.632812 C 488.605469 654.003906 499.480469 664.875 512.847656 664.875 C 526.21875 664.875 537.101562 654.003906 537.101562 640.632812 L 537.101562 474.265625 C 561.519531 449.03125 546.023438 433.015625 535.613281 422.363281 Z M 526.777344 516.097656 L 498.941406 516.097656 L 498.941406 502.273438 L 526.777344 502.273438 Z M 498.933594 491.949219 L 498.933594 477.382812 L 526.765625 477.382812 L 526.765625 491.949219 Z M 482.609375 442.535156 C 482.402344 430.757812 497.394531 407.527344 512.582031 397.230469 C 512.890625 404.71875 515.191406 415.257812 523.925781 425.046875 C 525.25 426.535156 526.726562 428.039062 528.234375 429.578125 C 538.414062 439.996094 547.15625 449.070312 529.742188 467.058594 L 495.835938 467.058594 C 492.367188 463.679688 482.804688 453.429688 482.609375 442.535156 Z M 512.847656 654.5625 C 505.179688 654.5625 498.933594 648.316406 498.933594 640.644531 L 498.933594 526.421875 L 526.765625 526.421875 L 526.765625 640.632812 C 526.777344 648.316406 520.519531 654.5625 512.847656 654.5625 Z M 512.847656 654.5625 "/></g><path style=" stroke:none;fill-rule:nonzero;fill:#ffffff;fill-opacity:1;" d="M 432.203125 472.699219 C 423.304688 469.300781 417.234375 464.089844 414.144531 457.191406 C 408.820312 445.257812 413.886719 431.78125 413.929688 431.648438 C 414.03125 431.390625 414.125 431.101562 414.167969 430.820312 C 414.382812 429.78125 419.265625 405.113281 403.933594 387.59375 C 393.125 375.265625 375.410156 369.867188 351.238281 371.632812 C 284.894531 376.402344 248.25 459.472656 247.464844 535.214844 C 247.105469 570.265625 264.617188 602.015625 294.328125 620.132812 C 311.097656 630.363281 329.949219 635.464844 349.578125 635.464844 C 369.71875 635.464844 390.679688 630.085938 411.027344 619.328125 C 467.402344 589.550781 471.066406 546.746094 470.035156 529.722656 C 468.414062 503.226562 453.574219 480.84375 432.203125 472.699219 Z M 406.207031 610.210938 C 369.316406 629.703125 330.496094 630.097656 299.707031 611.328125 C 273.132812 595.117188 257.460938 566.714844 257.792969 535.335938 C 258.523438 464.203125 291.789062 386.273438 351.992188 381.933594 C 354.71875 381.738281 357.351562 381.644531 359.871094 381.644531 C 376.503906 381.644531 388.6875 385.910156 396.128906 394.355469 C 407.261719 407.015625 404.585938 425.710938 404.121094 428.417969 C 403.046875 431.453125 398.226562 446.730469 404.679688 461.300781 C 408.902344 470.851562 416.933594 477.933594 428.539062 482.363281 C 445.851562 488.96875 458.398438 508.257812 459.730469 530.363281 C 460.636719 545.375 457.25 583.234375 406.207031 610.210938 Z M 406.207031 610.210938 "/><path style=" stroke:none;fill-rule:nonzero;fill:#ffffff;fill-opacity:1;" d="M 346.644531 393.261719 C 332.210938 393.261719 320.460938 405.011719 320.460938 419.445312 C 320.460938 433.878906 332.210938 445.628906 346.644531 445.628906 C 361.066406 445.628906 372.816406 433.878906 372.816406 419.445312 C 372.816406 405.011719 361.078125 393.261719 346.644531 393.261719 Z M 346.644531 435.304688 C 337.898438 435.304688 330.785156 428.191406 330.785156 419.445312 C 330.785156 410.699219 337.898438 403.585938 346.644531 403.585938 C 355.390625 403.585938 362.492188 410.699219 362.492188 419.445312 C 362.492188 428.191406 355.390625 435.304688 346.644531 435.304688 Z M 346.644531 435.304688 "/><path style=" stroke:none;fill-rule:nonzero;fill:#ffffff;fill-opacity:1;" d="M 415.136719 516.445312 C 400.714844 516.445312 388.964844 528.191406 388.964844 542.628906 C 388.964844 557.0625 400.714844 568.808594 415.136719 568.808594 C 429.570312 568.808594 441.320312 557.0625 441.320312 542.628906 C 441.320312 528.191406 429.582031 516.445312 415.136719 516.445312 Z M 415.136719 558.476562 C 406.390625 558.476562 399.289062 551.363281 399.289062 542.617188 C 399.289062 533.871094 406.390625 526.757812 415.136719 526.757812 C 423.882812 526.757812 430.996094 533.871094 430.996094 542.617188 C 430.996094 551.363281 423.882812 558.476562 415.136719 558.476562 Z M 415.136719 558.476562 "/><path style=" stroke:none;fill-rule:nonzero;fill:#ffffff;fill-opacity:1;" d="M 333.550781 491.902344 C 333.550781 475.941406 320.574219 462.953125 304.613281 462.953125 C 288.652344 462.953125 275.664062 475.941406 275.664062 491.902344 C 275.664062 507.863281 288.652344 520.84375 304.613281 520.84375 C 320.574219 520.84375 333.550781 507.863281 333.550781 491.902344 Z M 285.988281 491.902344 C 285.988281 481.628906 294.351562 473.277344 304.613281 473.277344 C 314.875 473.277344 323.226562 481.628906 323.226562 491.902344 C 323.226562 502.164062 314.875 510.519531 304.613281 510.519531 C 294.351562 510.519531 285.988281 502.164062 285.988281 491.902344 Z M 285.988281 491.902344 "/><path style=" stroke:none;fill-rule:nonzero;fill:#ffffff;fill-opacity:1;" d="M 322.867188 542.605469 C 306.90625 542.605469 293.917969 555.585938 293.917969 571.546875 C 293.917969 587.507812 306.90625 600.496094 322.867188 600.496094 C 338.828125 600.496094 351.816406 587.507812 351.816406 571.546875 C 351.816406 555.585938 338.828125 542.605469 322.867188 542.605469 Z M 322.867188 590.171875 C 312.605469 590.171875 304.242188 581.820312 304.242188 571.546875 C 304.242188 561.285156 312.605469 552.929688 322.867188 552.929688 C 333.128906 552.929688 341.492188 561.285156 341.492188 571.546875 C 341.480469 581.820312 333.128906 590.171875 322.867188 590.171875 Z M 322.867188 590.171875 "/><g clip-rule="nonzero" clip-path="url(#04d7cdb950)"><path style=" stroke:none;fill-rule:nonzero;fill:#ffffff;fill-opacity:1;" d="M 535.613281 404.433594 C 534.222656 402.996094 532.859375 401.613281 531.628906 400.242188 C 519.902344 387.109375 523.246094 372.332031 523.390625 371.746094 C 523.855469 369.898438 523.257812 367.945312 521.851562 366.664062 C 520.449219 365.386719 518.425781 364.992188 516.648438 365.632812 C 494.875 373.40625 471.984375 407.003906 472.285156 424.78125 C 472.550781 439.558594 484.148438 452.164062 488.605469 456.5 L 488.605469 622.703125 C 488.605469 636.074219 499.480469 646.945312 512.847656 646.945312 C 526.21875 646.945312 537.101562 636.074219 537.101562 622.703125 L 537.101562 456.335938 C 561.519531 431.101562 546.023438 415.085938 535.613281 404.433594 Z M 526.777344 498.167969 L 498.941406 498.167969 L 498.941406 484.34375 L 526.777344 484.34375 Z M 498.933594 474.019531 L 498.933594 459.453125 L 526.765625 459.453125 L 526.765625 474.019531 Z M 482.609375 424.605469 C 482.402344 412.828125 497.394531 389.597656 512.582031 379.300781 C 512.890625 386.789062 515.191406 397.328125 523.925781 407.117188 C 525.25 408.605469 526.726562 410.109375 528.234375 411.648438 C 538.414062 422.066406 547.15625 431.140625 529.742188 449.128906 L 495.835938 449.128906 C 492.367188 445.75 482.804688 435.5 482.609375 424.605469 Z M 512.847656 636.632812 C 505.179688 636.632812 498.933594 630.386719 498.933594 622.714844 L 498.933594 508.492188 L 526.765625 508.492188 L 526.765625 622.703125 C 526.777344 630.386719 520.519531 636.632812 512.847656 636.632812 Z M 512.847656 636.632812 "/></g></g></svg>