<svg xmlns="http://www.w3.org/2000/svg" xmlns:xlink="http://www.w3.org/1999/xlink" width="1080" zoomAndPan="magnify" viewBox="0 0 810 1012.49997" height="1350" preserveAspectRatio="xMidYMid meet" version="1.2"><defs><clipPath id="019c0616d0"><path d="M 0.199219 0 L 809.800781 0 L 809.800781 1012 L 0.199219 1012 Z M 0.199219 0 "/></clipPath><clipPath id="025dbe619e"><path d="M 245 390.34375 L 565 390.34375 L 565 656 L 245 656 Z M 245 390.34375 "/></clipPath><clipPath id="1a2c4bd2cc"><path d="M 245 372.417969 L 565 372.417969 L 565 638 L 245 638 Z M 245 372.417969 "/></clipPath></defs><g id="38c011537b"><g clip-rule="nonzero" clip-path="url(#019c0616d0)"><path style=" stroke:none;fill-rule:nonzero;fill:#ffffff;fill-opacity:1;" d="M 0.199219 0 L 809.800781 0 L 809.800781 1012 L 0.199219 1012 Z M 0.199219 0 "/><path style=" stroke:none;fill-rule:nonzero;fill:#200934;fill-opacity:1;" d="M 0.199219 0 L 809.800781 0 L 809.800781 1012 L 0.199219 1012 Z M 0.199219 0 "/></g><g clip-rule="nonzero" clip-path="url(#025dbe619e)"><path style=" stroke:none;fill-rule:evenodd;fill:#1d0432;fill-opacity:1;" d="M 450.070312 613.207031 L 457.554688 643.097656 C 457.832031 644.261719 458.996094 645.148438 460.160156 645.148438 L 473.96875 645.148438 C 477.074219 645.148438 479.347656 647.53125 479.347656 650.472656 C 479.347656 653.300781 476.960938 655.792969 474.023438 655.792969 L 335.621094 655.792969 C 332.628906 655.792969 330.296875 653.410156 330.296875 650.472656 C 330.296875 647.644531 332.683594 645.148438 335.675781 645.148438 L 349.484375 645.148438 C 350.648438 645.148438 351.8125 644.207031 352.089844 643.097656 L 359.574219 613.207031 L 261.207031 613.207031 C 252.335938 613.207031 245.128906 606 245.128906 597.292969 L 245.128906 405.550781 C 245.128906 396.734375 252.226562 389.636719 261.207031 389.636719 L 548.4375 389.636719 C 557.308594 389.636719 564.515625 396.84375 564.515625 405.550781 L 564.515625 597.292969 C 564.515625 606.113281 557.421875 613.207031 548.4375 613.207031 Z M 438.980469 613.207031 L 370.664062 613.207031 L 362.679688 645.148438 L 446.964844 645.148438 Z M 255.773438 565.191406 C 255.773438 568.183594 258.214844 570.625 261.207031 570.625 L 548.4375 570.625 C 551.488281 570.625 553.871094 568.183594 553.871094 565.191406 L 553.871094 405.714844 C 553.871094 402.722656 551.429688 400.28125 548.4375 400.28125 L 261.207031 400.28125 C 258.15625 400.28125 255.773438 402.722656 255.773438 405.714844 Z M 404.824219 602.5625 C 410.699219 602.5625 415.46875 597.792969 415.46875 591.917969 C 415.46875 586.039062 410.699219 581.269531 404.824219 581.269531 C 398.945312 581.269531 394.175781 586.039062 394.175781 591.917969 C 394.175781 597.792969 398.945312 602.5625 404.824219 602.5625 Z M 404.824219 602.5625 "/></g><g clip-rule="nonzero" clip-path="url(#1a2c4bd2cc)"><path style=" stroke:none;fill-rule:evenodd;fill:#ffffff;fill-opacity:1;" d="M 450.070312 595.28125 L 457.554688 625.167969 C 457.832031 626.332031 458.996094 627.21875 460.160156 627.21875 L 473.96875 627.21875 C 477.074219 627.21875 479.347656 629.601562 479.347656 632.542969 C 479.347656 635.371094 476.960938 637.863281 474.023438 637.863281 L 335.621094 637.863281 C 332.628906 637.863281 330.296875 635.480469 330.296875 632.542969 C 330.296875 629.714844 332.683594 627.21875 335.675781 627.21875 L 349.484375 627.21875 C 350.648438 627.21875 351.8125 626.277344 352.089844 625.167969 L 359.574219 595.28125 L 261.207031 595.28125 C 252.335938 595.28125 245.128906 588.070312 245.128906 579.367188 L 245.128906 387.621094 C 245.128906 378.804688 252.226562 371.707031 261.207031 371.707031 L 548.4375 371.707031 C 557.308594 371.707031 564.515625 378.914062 564.515625 387.621094 L 564.515625 579.367188 C 564.515625 588.183594 557.421875 595.28125 548.4375 595.28125 Z M 438.980469 595.28125 L 370.664062 595.28125 L 362.679688 627.21875 L 446.964844 627.21875 Z M 255.773438 547.261719 C 255.773438 550.253906 258.214844 552.695312 261.207031 552.695312 L 548.4375 552.695312 C 551.488281 552.695312 553.871094 550.253906 553.871094 547.261719 L 553.871094 387.785156 C 553.871094 384.792969 551.429688 382.351562 548.4375 382.351562 L 261.207031 382.351562 C 258.15625 382.351562 255.773438 384.792969 255.773438 387.785156 Z M 404.824219 584.632812 C 410.699219 584.632812 415.46875 579.863281 415.46875 573.988281 C 415.46875 568.109375 410.699219 563.339844 404.824219 563.339844 C 398.945312 563.339844 394.175781 568.109375 394.175781 573.988281 C 394.175781 579.863281 398.945312 584.632812 404.824219 584.632812 Z M 404.824219 584.632812 "/></g></g></svg>